<svg xmlns="http://www.w3.org/2000/svg" width="475" height="163" viewBox="0 0 475 163">
  <defs>
    <style>
      .cls-1, .cls-2 {
        fill: #fff;
        fill-rule: evenodd;
      }

      .cls-2 {
        stroke: #000;
        stroke-width: 0;
      }
    </style>
  </defs>
  <path id="ore_copy" data-name="ore copy" class="cls-1" d="M153.47,48.4a70.883,70.883,0,0,0-41.382-42.48A88.855,88.855,0,0,0,79.129.064,88.976,88.976,0,0,0,46.463,5.851a70.406,70.406,0,0,0-25.2,16.48A72.346,72.346,0,0,0,5.3,48.111,95.388,95.388,0,0,0-.266,81.363a94.258,94.258,0,0,0,5.493,32.886A72.094,72.094,0,0,0,46.463,156.8q14.5,5.856,32.666,5.859,18.309,0,32.959-5.786a71.13,71.13,0,0,0,25.195-16.626A72.781,72.781,0,0,0,153.4,114.322a94.515,94.515,0,0,0,5.567-32.959A94.879,94.879,0,0,0,153.47,48.4Zm-45.41,70.825q-10.767,13.7-28.931,13.7A35.37,35.37,0,0,1,58.255,126.7q-8.865-6.224-13.623-17.944T39.871,81.363q0-15.82,4.834-27.686t13.77-17.944a35.84,35.84,0,0,1,20.654-6.079q18.162,0,28.931,13.623t10.766,38.086Q118.826,105.533,108.06,119.229ZM238.826,74.405A95.592,95.592,0,0,1,243.074,52.8q3.076-9.081,8.643-13.7t14.355-4.614A49.414,49.414,0,0,1,280.94,37.2q8.423,2.712,10.621,2.71,5.856,0,10.913-4.761a15.879,15.879,0,0,0,5.053-12.085q0-10.4-11.865-16.7A51.575,51.575,0,0,0,271.2.064q-12.6,0-20.141,6.3t-14.722,18.6q-0.44-12.3-4.834-18.6t-14.356-6.3q-19.483,0-19.482,26.953V138.346q0,12.012,5.566,18.164a18.31,18.31,0,0,0,14.209,6.152,19.042,19.042,0,0,0,14.5-6.079q5.713-6.076,5.713-18.237v-33.4Q237.654,86.93,238.826,74.405ZM465.32,86.71q8.642-4.467,8.643-19.556a67.21,67.21,0,0,0-8.35-31.934q-8.349-15.673-25.122-25.562T400.281-.229a89.4,89.4,0,0,0-32.812,5.786,66.717,66.717,0,0,0-24.9,16.626,72.51,72.51,0,0,0-15.38,26,99.452,99.452,0,0,0-5.274,32.886q0,37.648,21.387,59.619t59.912,21.973q16.843,0,29.81-4.394a72.978,72.978,0,0,0,21.533-11.06,50.294,50.294,0,0,0,12.817-13.916q4.247-7.251,4.248-12.671,0-6.151-3.808-9.521a14.483,14.483,0,0,0-9.961-3.37q-5.714,0-8.789,2.637Q441.59,117.4,436.9,121.5a87.547,87.547,0,0,1-10.254,7.69,42.615,42.615,0,0,1-11.5,5.274,47.875,47.875,0,0,1-13.11,1.684A36.759,36.759,0,0,1,368.274,115.2a53.061,53.061,0,0,1-5.493-24.023H441Q456.676,91.178,465.32,86.71ZM374.427,37.931Q384.02,27.6,398.963,27.6q15.672,0,25.268,10.181t11.06,30.689h-72.51Q364.832,48.258,374.427,37.931Z"/>
  <path id="Shape_1_copy" data-name="Shape 1 copy" class="cls-2" d="M137,138.683c0,0.723-.962,1.309-2.145,1.309H24.144c-1.184,0-2.143-.586-2.143-1.309v-34.9c0-1.257,2.143-2.621,2.143-2.621S76.98,69.015,77.984,68.4a3.234,3.234,0,0,1,3.048-.018c0.654,0.4,53.49,32.776,53.49,32.776s2.352,1.446,2.476,2.621v34.9Z"/>
</svg>
